<svg width="40" height="40" viewBox="0 0 40 40" fill="none" xmlns="http://www.w3.org/2000/svg">
<path d="M20 40C31.0457 40 40 31.0457 40 20C40 8.9543 31.0457 0 20 0C8.9543 0 0 8.9543 0 20C0 31.0457 8.9543 40 20 40Z" fill="black"/>
<path d="M13.1581 22.8257V21.6369H14.3462V22.8257H13.1581Z" fill="white"/>
<path d="M20.1794 20.5701L21.2063 20.7038C21.0938 21.4113 20.8063 21.9651 20.345 22.3651C19.8832 22.7651 19.3157 22.9651 18.6425 22.9651C17.8 22.9651 17.1225 22.6901 16.6107 22.1388C16.0982 21.5882 15.8425 20.7982 15.8425 19.7707C15.8425 19.1057 15.9525 18.5238 16.1732 18.0251C16.3932 17.5263 16.7288 17.1526 17.1788 16.9032C17.6288 16.6538 18.1188 16.5288 18.6488 16.5288C19.3175 16.5288 19.8644 16.6982 20.2894 17.0363C20.715 17.3751 20.9875 17.8551 21.1075 18.4776L20.0932 18.6344C19.9963 18.2207 19.825 17.9094 19.58 17.7007C19.3338 17.4919 19.0375 17.3876 18.6894 17.3876C18.1638 17.3876 17.7369 17.5763 17.4082 17.9526C17.08 18.3301 16.9157 18.9263 16.9157 19.7413C16.9157 20.5682 17.0738 21.1694 17.3907 21.5444C17.7082 21.9201 18.1219 22.1069 18.6319 22.1069C19.0413 22.1069 19.3832 21.9813 19.6582 21.7294C19.9325 21.4788 20.1063 21.0926 20.1794 20.5701Z" fill="white"/>
<path d="M21.71 19.7476C21.71 18.6069 22.0268 17.7619 22.6606 17.2132C23.1906 16.7576 23.8356 16.5288 24.5975 16.5288C25.4437 16.5288 26.1362 16.8063 26.6731 17.3607C27.21 17.9157 27.4787 18.6819 27.4787 19.6601C27.4787 20.4526 27.3606 21.0763 27.1225 21.5301C26.885 21.9844 26.5387 22.3369 26.085 22.5876C25.63 22.8388 25.1343 22.9651 24.5975 22.9651C23.7356 22.9651 23.0387 22.6888 22.5068 22.1363C21.9756 21.5832 21.71 20.7869 21.71 19.7476ZM22.7831 19.7476C22.7831 20.5363 22.9543 21.1263 23.2987 21.5188C23.6431 21.9113 24.0756 22.1069 24.5975 22.1069C25.1156 22.1069 25.5468 21.9101 25.8906 21.5157C26.2343 21.1213 26.4062 20.5201 26.4062 19.7119C26.4062 18.9507 26.2331 18.3738 25.8875 17.9813C25.5412 17.5888 25.1112 17.3926 24.5975 17.3926C24.0756 17.3926 23.6431 17.5876 23.2987 17.9788C22.9543 18.3701 22.7831 18.9588 22.7831 19.7476Z" fill="white"/>
</svg>
