<svg width="186" height="178" viewBox="0 0 186 178" fill="none" xmlns="http://www.w3.org/2000/svg">
<path d="M64.1379 0C28.7024 0 0 23.3544 0 52.1724C0.0735959 63.0127 4.10101 73.4874 11.3839 81.7877L0 110.483L31.6524 97.1639C40.3649 101.304 49.8698 103.697 59.5844 104.192C61.0908 104.315 62.5987 104.345 64.1379 104.345C94.3153 104.345 119.585 87.4041 126.416 64.6011C127.653 60.5641 128.279 56.3788 128.276 52.1724C128.276 23.3544 99.5735 0 64.1379 0ZM74.4961 65.4853C72.0143 68.5827 68.2139 70.4544 64.1379 70.5862C55.283 70.5862 48.1035 60.9687 48.1035 49.1035C48.1035 37.2382 55.283 27.6207 64.1379 27.6207C72.9929 27.6207 80.1724 37.2382 80.1724 49.1035C80.318 55.0286 78.3122 60.8174 74.4961 65.4853Z" fill="#009698"/>
<path d="M74.4962 65.4852L67.3449 61.3792L74.4962 65.4852C78.3122 60.8173 80.3181 55.0285 80.1725 49.1034C80.1725 37.2381 72.993 27.6206 64.138 27.6206C55.283 27.6206 48.1035 37.2381 48.1035 49.1034C48.1035 60.9686 55.283 70.5861 64.138 70.5861C68.2139 70.4543 72.0143 68.5826 74.4962 65.4852Z" fill="#009698"/>
<path d="M186 116.621C186 89.0614 159.736 66.4742 126.416 64.6011C119.585 87.404 94.3153 104.345 64.1379 104.345C62.5987 104.345 61.0907 104.315 59.5844 104.192C58.3473 108.229 57.721 112.414 57.7241 116.621C57.7241 145.439 86.4265 168.793 121.862 168.793C132.192 168.837 142.413 166.775 151.847 162.747L186 178L172.723 148.385C181.161 139.768 185.9 128.429 186 116.621Z" fill="white"/>
<path d="M85.0312 67.9563L79.0825 64.5397C81.9527 59.8643 83.4387 54.5266 83.3792 49.1035C83.3792 35.5659 74.7497 24.5518 64.1379 24.5518C53.526 24.5518 44.8965 35.5659 44.8965 49.1035C44.8965 62.6411 53.526 73.6552 64.1379 73.6552C68.195 73.5893 72.0752 72.0548 74.9972 69.359L81.7304 73.2221C83.2461 74.0583 85.1816 73.5788 86.0819 72.1447C86.9823 70.7106 86.5157 68.8495 85.0344 67.9623L85.0312 67.9563ZM64.1379 67.5173C57.1854 67.5173 51.3103 59.0836 51.3103 49.1035C51.3103 39.1234 57.1854 30.6897 64.1379 30.6897C71.0903 30.6897 76.9655 39.1234 76.9655 49.1035C77.014 53.4117 75.8459 57.6525 73.5847 61.3794L68.9967 58.7465C67.481 57.9103 65.5456 58.3898 64.6452 59.8239C63.7448 61.258 64.2115 63.1191 65.6928 64.0063L69.1471 65.9888C67.672 66.9613 65.9292 67.4918 64.1379 67.5173Z" fill="white"/>
<path d="M140.917 143.211L124.883 100.245C124.428 99.0223 123.218 98.2056 121.862 98.2056C120.506 98.2056 119.296 99.0223 118.841 100.245L102.807 143.211C102.212 144.806 103.081 146.563 104.75 147.132C106.418 147.702 108.253 146.87 108.848 145.273L113.817 131.966H129.907L134.876 145.273C135.332 146.495 136.54 147.311 137.897 147.311C138.939 147.311 139.916 146.825 140.518 146.01C141.119 145.195 141.268 144.15 140.917 143.211ZM116.106 125.828L121.862 110.401L127.634 125.828H116.106Z" fill="#009698"/>
</svg>
