<svg width="186" height="178" viewBox="0 0 186 178" fill="none" xmlns="http://www.w3.org/2000/svg">
<g clip-path="url(#clip0)">
<path d="M172.043 64.0083L162.44 55.8018L142.874 62.9981L140.211 73.5122L129.979 117.933L163.205 131.785L167.329 126.691C173.017 115.525 176.208 102.979 176.208 89.7167C176.208 80.7537 174.743 72.1177 172.043 64.0083Z" fill="#FE7D43"/>
<path d="M137.835 112.543L126.174 117.934L96.1943 138.142L109.556 166.67L119.095 168.932V168.936C140.412 161.349 157.564 145.867 167.448 126.456L137.835 112.543Z" fill="#EE6161"/>
<path d="M107.676 138.957L101.315 134.69L63.3029 129.165L45.0397 157.244L53.4462 167.377V167.38C64.1398 171.782 75.9229 174.22 88.3009 174.22C99.1321 174.22 109.506 172.355 119.095 168.935V168.932L107.676 138.957Z" fill="#C2A1D5"/>
<path d="M65.0545 128.447L43.9261 96.6841L7.06091 107.599V122.884C15.9586 142.821 32.6386 158.819 53.4458 167.38V167.377L66.8054 138.142L65.0545 128.447Z" fill="#8AC9FE"/>
<path d="M15.6099 49.4392L5.59966 60.0551H5.59594C1.9781 69.2853 0 79.2806 0 89.7171C0 101.492 2.51724 112.7 7.06092 122.884H7.06464L37.8181 110.558L41.839 101.719L44.2533 58.2417L15.6099 49.4392Z" fill="#75CDD5"/>
<path d="M67.6406 13.6226H49.854C29.5451 23.0378 13.5753 39.6765 5.59595 60.0549H5.59967L36.7398 71.4486L57.1009 61.5843L84.0276 38.4044L67.6406 13.6226Z" fill="#6CF5C2"/>
<path d="M140.605 73.5126L138.974 66.5718L118.872 71.4488L117.79 80.3268C118.82 83.2766 119.374 86.4364 119.374 89.7171C119.374 94.2575 118.31 98.556 116.41 102.403L116.845 109.486L129.979 116.175L137.834 112.544C141.315 105.641 143.267 97.8977 143.267 89.7171C143.267 84.063 142.33 78.6188 140.605 73.5126Z" fill="#FD6930"/>
<path d="M116.41 102.402C113.016 109.281 106.947 114.711 99.4887 117.465L96.6216 122.626L102.598 137.272L107.676 138.957C120.924 134.182 131.733 124.656 137.835 112.544L116.41 102.402Z" fill="#E94444"/>
<path d="M99.4887 117.465C96.0196 118.749 92.2456 119.454 88.3005 119.454C84.0766 119.454 80.0535 118.65 76.3836 117.184L70.1128 117.834L62.6541 132.386L66.8055 138.142C73.409 140.832 80.6745 142.319 88.3005 142.319C95.1198 142.319 101.649 141.131 107.676 138.957L99.4887 117.465Z" fill="#A274BF"/>
<path d="M59.8635 101.719L54.9573 98.3242L38.9462 103.634L37.8181 110.558C43.4066 122.944 53.8251 132.861 66.8054 138.142L76.3836 117.184C69.0178 114.259 63.0798 108.69 59.8635 101.719Z" fill="#26A6FE"/>
<path d="M130.633 15.5441C118.065 8.96125 103.638 5.21436 88.3005 5.21436C74.517 5.21436 61.4735 8.23536 49.854 13.6226L64.1729 42.4449L78.3985 48.5503L123.159 55.8021L136.182 29.3532L130.633 15.5441Z" fill="#FEE97D"/>
<path d="M185.868 57.4788C186.31 58.6993 185.604 60.0266 184.317 60.4109L172.27 64.0083L149.451 70.8225C144.35 55.6498 133.277 43.0428 118.873 35.5418L130.466 15.5442L136.601 4.96177C137.248 3.8409 138.735 3.44593 139.892 4.08998C161.219 15.9213 177.717 34.8409 185.868 57.4788Z" fill="#FEC165"/>
<path d="M57.2273 89.7169C57.2273 86.1692 57.8743 82.7675 59.0679 79.6148L58.7934 67.2195H45.4692L36.7399 71.4485C34.5387 77.1383 33.334 83.2941 33.334 89.7169C33.334 97.1217 34.9328 104.167 37.8182 110.558L59.8636 101.719C58.168 98.0504 57.2273 93.9904 57.2273 89.7169Z" fill="#2ABCC8"/>
<path d="M75.3268 45.894L64.1725 42.4446C51.5565 48.3443 41.6549 58.7381 36.7394 71.4483L59.0674 79.6146C61.7891 72.4055 67.3367 66.4916 74.4348 63.1005V63.097L79.5496 57.5855L75.3268 45.894Z" fill="#00F2A6"/>
<path d="M114.462 43.4412L114.457 43.4405C106.679 39.4057 97.7705 37.1145 88.3006 37.1145C79.6445 37.1145 71.457 39.0289 64.173 42.4448L74.4353 63.1008C78.6071 61.1082 83.3181 59.9802 88.3006 59.9802C93.5656 59.9802 98.522 61.2327 102.865 63.446L110.685 63.8143L118.337 54.051L114.462 43.4412Z" fill="#FEDF30"/>
<path d="M149.451 70.8224L140.438 73.5124L117.79 80.3266C115.258 73.0356 109.726 66.9356 102.736 63.3809L114.295 43.4412L118.873 35.5417C133.277 43.0427 144.35 55.6497 149.451 70.8224Z" fill="#FDB441"/>
</g>
<defs>
<clipPath id="clip0">
<rect width="186" height="178" fill="white"/>
</clipPath>
</defs>
</svg>
